<svg xmlns="http://www.w3.org/2000/svg" width="191" height="174" viewBox="0 0 191 174" role="img" aria-label="30-day activity">
<text x="35.6" y="13" text-anchor="middle" font-family="-apple-system,Segoe UI,Helvetica,Arial,sans-serif" font-size="9" fill="#8b949e">Mon</text>
<text x="55.6" y="13" text-anchor="middle" font-family="-apple-system,Segoe UI,Helvetica,Arial,sans-serif" font-size="9" fill="#8b949e">Tue</text>
<text x="75.6" y="13" text-anchor="middle" font-family="-apple-system,Segoe UI,Helvetica,Arial,sans-serif" font-size="9" fill="#8b949e">Wed</text>
<text x="95.6" y="13" text-anchor="middle" font-family="-apple-system,Segoe UI,Helvetica,Arial,sans-serif" font-size="9" fill="#8b949e">Thu</text>
<text x="115.6" y="13" text-anchor="middle" font-family="-apple-system,Segoe UI,Helvetica,Arial,sans-serif" font-size="9" fill="#8b949e">Fri</text>
<text x="135.6" y="13" text-anchor="middle" font-family="-apple-system,Segoe UI,Helvetica,Arial,sans-serif" font-size="9" fill="#8b949e">Sat</text>
<text x="155.6" y="13" text-anchor="middle" font-family="-apple-system,Segoe UI,Helvetica,Arial,sans-serif" font-size="9" fill="#8b949e">Sun</text>
<rect x="27.6" y="20" width="16" height="16" rx="3" fill="#1f242d" opacity="1"/>
<rect x="47.6" y="20" width="16" height="16" rx="3" fill="#1f242d" opacity="1"/>
<rect x="67.6" y="20" width="16" height="16" rx="3" fill="#1f242d" opacity="1"/>
<rect x="87.6" y="20" width="16" height="16" rx="3" fill="#1f242d" opacity="1"/>
<rect x="107.6" y="20" width="16" height="16" rx="3" fill="#1f242d" opacity="1"/>
<rect x="127.6" y="20" width="16" height="16" rx="3" fill="#1f242d" opacity="1"/>
<rect x="147.6" y="20" width="16" height="16" rx="3" fill="#3f4650" opacity="1"/>
<rect x="27.6" y="40" width="16" height="16" rx="3" fill="#3f4650" opacity="1"/>
<rect x="47.6" y="40" width="16" height="16" rx="3" fill="#3f4650" opacity="1"/>
<rect x="67.6" y="40" width="16" height="16" rx="3" fill="#3f4650" opacity="1"/>
<rect x="87.6" y="40" width="16" height="16" rx="3" fill="#3f4650" opacity="1"/>
<rect x="107.6" y="40" width="16" height="16" rx="3" fill="#3f4650" opacity="1"/>
<rect x="127.6" y="40" width="16" height="16" rx="3" fill="#3f4650" opacity="1"/>
<rect x="147.6" y="40" width="16" height="16" rx="3" fill="#3f4650" opacity="1"/>
<rect x="27.6" y="60" width="16" height="16" rx="3" fill="#3f4650" opacity="1"/>
<rect x="47.6" y="60" width="16" height="16" rx="3" fill="#3f4650" opacity="1"/>
<rect x="67.6" y="60" width="16" height="16" rx="3" fill="#3f4650" opacity="1"/>
<rect x="87.6" y="60" width="16" height="16" rx="3" fill="#3f4650" opacity="1"/>
<rect x="107.6" y="60" width="16" height="16" rx="3" fill="#3f4650" opacity="1"/>
<rect x="127.6" y="60" width="16" height="16" rx="3" fill="#3f4650" opacity="1"/>
<rect x="147.6" y="60" width="16" height="16" rx="3" fill="#3f4650" opacity="1"/>
<rect x="27.6" y="80" width="16" height="16" rx="3" fill="#3f4650" opacity="1"/>
<rect x="47.6" y="80" width="16" height="16" rx="3" fill="#3f4650" opacity="1"/>
<rect x="67.6" y="80" width="16" height="16" rx="3" fill="#3f4650" opacity="1"/>
<rect x="87.6" y="80" width="16" height="16" rx="3" fill="#3f4650" opacity="1"/>
<rect x="107.6" y="80" width="16" height="16" rx="3" fill="#3f4650" opacity="1"/>
<rect x="127.6" y="80" width="16" height="16" rx="3" fill="#3f4650" opacity="1"/>
<rect x="147.6" y="80" width="16" height="16" rx="3" fill="#3f4650" opacity="1"/>
<rect x="27.6" y="100" width="16" height="16" rx="3" fill="#3f4650" opacity="1"/>
<rect x="47.6" y="100" width="16" height="16" rx="3" fill="#3f4650" opacity="1"/>
<rect x="67.6" y="100" width="16" height="16" rx="3" fill="#3f4650" opacity="1"/>
<rect x="87.6" y="100" width="16" height="16" rx="3" fill="#3f4650" opacity="1"/>
<rect x="107.6" y="100" width="16" height="16" rx="3" fill="#3f4650" opacity="1"/>
<rect x="127.6" y="100" width="16" height="16" rx="3" fill="#3f4650" opacity="1"/>
<rect x="147.6" y="100" width="16" height="16" rx="3" fill="#3f4650" opacity="1"/>
<rect x="27.6" y="120" width="16" height="16" rx="3" fill="#3f4650" opacity="1"/>
<rect x="28.3" y="120.8" width="14.5" height="14.5" rx="3" fill="none" stroke="#f0f6fc" stroke-width="1.5"/>
<rect x="47.6" y="120" width="16" height="16" rx="3" fill="#1f242d" opacity="1"/>
<rect x="67.6" y="120" width="16" height="16" rx="3" fill="#1f242d" opacity="1"/>
<rect x="87.6" y="120" width="16" height="16" rx="3" fill="#1f242d" opacity="1"/>
<rect x="107.6" y="120" width="16" height="16" rx="3" fill="#1f242d" opacity="1"/>
<rect x="127.6" y="120" width="16" height="16" rx="3" fill="#1f242d" opacity="1"/>
<rect x="147.6" y="120" width="16" height="16" rx="3" fill="#1f242d" opacity="1"/>
<rect x="6.0" y="152.0" width="11" height="11" rx="2.5" fill="#39d353" opacity="1"/>
<text x="22.0" y="162.0" font-family="-apple-system,Segoe UI,Helvetica,Arial,sans-serif" font-size="10" fill="#8b949e">active</text>
<rect x="73.6" y="152.0" width="11" height="11" rx="2.5" fill="#3f4650" opacity="1"/>
<text x="89.6" y="162.0" font-family="-apple-system,Segoe UI,Helvetica,Arial,sans-serif" font-size="10" fill="#8b949e">missed</text>
<rect x="141.9" y="152.8" width="9.5" height="9.5" rx="2.5" fill="none" stroke="#f0f6fc" stroke-width="1.5"/>
<text x="157.2" y="162.0" font-family="-apple-system,Segoe UI,Helvetica,Arial,sans-serif" font-size="10" fill="#8b949e">today</text>
</svg>
